<svg width="212" height="67" viewBox="0 0 212 67" fill="none" xmlns="http://www.w3.org/2000/svg">
<path d="M81.4131 47.9944H74.5291L73.3901 51.2784H69.75L75.9654 34.0191H80.0016L86.217 51.2784H82.5522L81.4131 47.9944ZM80.4721 45.229L77.9711 38.0191L75.4701 45.229H80.4721Z" fill="white"/>
<path d="M92.0069 39.5747C92.4527 38.9491 93.0635 38.4306 93.8394 38.0191C94.6318 37.5911 95.5315 37.3771 96.5385 37.3771C97.7106 37.3771 98.7671 37.6652 99.7081 38.2413C100.666 38.8175 101.417 39.6405 101.961 40.7105C102.523 41.764 102.803 42.9903 102.803 44.3895C102.803 45.7886 102.523 47.0314 101.961 48.1179C101.417 49.1878 100.666 50.0191 99.7081 50.6117C98.7671 51.2043 97.7106 51.5006 96.5385 51.5006C95.5315 51.5006 94.64 51.2948 93.8641 50.8833C93.1047 50.4718 92.4857 49.9533 92.0069 49.3277V57.7969H88.5402V37.5993H92.0069V39.5747ZM99.2623 44.3895C99.2623 43.5664 99.089 42.8586 98.7423 42.266C98.4122 41.657 97.9664 41.1961 97.4052 40.8833C96.8604 40.5705 96.2661 40.4142 95.6223 40.4142C94.9949 40.4142 94.4006 40.5788 93.8394 40.908C93.2946 41.2207 92.8489 41.6816 92.5022 42.2907C92.172 42.8998 92.0069 43.6158 92.0069 44.4388C92.0069 45.2619 92.172 45.9779 92.5022 46.587C92.8489 47.1961 93.2946 47.6652 93.8394 47.9944C94.4006 48.3072 94.9949 48.4635 95.6223 48.4635C96.2661 48.4635 96.8604 48.2989 97.4052 47.9697C97.9664 47.6405 98.4122 47.1714 98.7423 46.5623C99.089 45.9533 99.2623 45.229 99.2623 44.3895Z" fill="white"/>
<path d="M108.789 39.5747C109.235 38.9491 109.846 38.4306 110.622 38.0191C111.414 37.5911 112.314 37.3771 113.321 37.3771C114.493 37.3771 115.549 37.6652 116.49 38.2413C117.448 38.8175 118.199 39.6405 118.744 40.7105C119.305 41.764 119.586 42.9903 119.586 44.3895C119.586 45.7886 119.305 47.0314 118.744 48.1179C118.199 49.1878 117.448 50.0191 116.49 50.6117C115.549 51.2043 114.493 51.5006 113.321 51.5006C112.314 51.5006 111.422 51.2948 110.646 50.8833C109.887 50.4718 109.268 49.9533 108.789 49.3277V57.7969H105.323V37.5993H108.789V39.5747ZM116.045 44.3895C116.045 43.5664 115.871 42.8586 115.525 42.266C115.194 41.657 114.749 41.1961 114.187 40.8833C113.643 40.5705 113.048 40.4142 112.405 40.4142C111.777 40.4142 111.183 40.5788 110.622 40.908C110.077 41.2207 109.631 41.6816 109.285 42.2907C108.954 42.8998 108.789 43.6158 108.789 44.4388C108.789 45.2619 108.954 45.9779 109.285 46.587C109.631 47.1961 110.077 47.6652 110.622 47.9944C111.183 48.3072 111.777 48.4635 112.405 48.4635C113.048 48.4635 113.643 48.2989 114.187 47.9697C114.749 47.6405 115.194 47.1714 115.525 46.5623C115.871 45.9533 116.045 45.229 116.045 44.3895Z" fill="white"/>
<path d="M133.973 51.4512C132.768 51.4512 131.678 51.2454 130.704 50.8339C129.747 50.4224 128.988 49.8298 128.426 49.0561C127.865 48.2825 127.576 47.3689 127.56 46.3154H131.274C131.323 47.0232 131.571 47.5829 132.017 47.9944C132.479 48.4059 133.106 48.6117 133.899 48.6117C134.708 48.6117 135.343 48.4224 135.805 48.0438C136.268 47.6487 136.499 47.1384 136.499 46.5129C136.499 46.0026 136.342 45.5829 136.028 45.2537C135.715 44.9244 135.318 44.6693 134.84 44.4882C134.377 44.2907 133.734 44.0767 132.908 43.8463C131.786 43.517 130.869 43.1961 130.16 42.8833C129.466 42.5541 128.864 42.0685 128.352 41.4265C127.857 40.7681 127.609 39.8956 127.609 38.8092C127.609 37.7886 127.865 36.8998 128.377 36.1426C128.888 35.3854 129.607 34.8092 130.531 34.4142C131.456 34.0026 132.512 33.7969 133.701 33.7969C135.484 33.7969 136.928 34.2331 138.034 35.1055C139.157 35.9615 139.776 37.1631 139.891 38.7105H136.078C136.045 38.1179 135.789 37.6323 135.31 37.2537C134.848 36.8586 134.229 36.6611 133.453 36.6611C132.776 36.6611 132.231 36.8339 131.819 37.1796C131.422 37.5253 131.224 38.0273 131.224 38.6858C131.224 39.1467 131.373 39.5335 131.67 39.8463C131.984 40.1426 132.363 40.3895 132.809 40.587C133.271 40.7681 133.915 40.9821 134.741 41.229C135.863 41.5582 136.779 41.8874 137.489 42.2166C138.199 42.5458 138.81 43.0397 139.322 43.6981C139.833 44.3565 140.089 45.2207 140.089 46.2907C140.089 47.2125 139.85 48.0685 139.371 48.8586C138.892 49.6487 138.191 50.2825 137.266 50.7598C136.342 51.2207 135.244 51.4512 133.973 51.4512Z" fill="white"/>
<path d="M147.131 40.4388V47.0561C147.131 47.517 147.238 47.8545 147.453 48.0685C147.684 48.266 148.064 48.3648 148.592 48.3648H150.202V51.2784H148.023C145.101 51.2784 143.64 49.8627 143.64 47.0314V40.4388H142.005V37.5993H143.64V34.2166H147.131V37.5993H150.202V40.4388H147.131Z" fill="white"/>
<path d="M158.787 51.5006C157.466 51.5006 156.277 51.2125 155.221 50.6364C154.164 50.0438 153.331 49.2125 152.72 48.1426C152.126 47.0726 151.828 45.838 151.828 44.4388C151.828 43.0397 152.134 41.8051 152.745 40.7351C153.372 39.6652 154.222 38.8421 155.295 38.266C156.368 37.6734 157.565 37.3771 158.886 37.3771C160.206 37.3771 161.403 37.6734 162.476 38.266C163.549 38.8421 164.391 39.6652 165.002 40.7351C165.629 41.8051 165.943 43.0397 165.943 44.4388C165.943 45.838 165.621 47.0726 164.977 48.1426C164.35 49.2125 163.492 50.0438 162.402 50.6364C161.329 51.2125 160.124 51.5006 158.787 51.5006ZM158.787 48.4882C159.414 48.4882 160 48.3401 160.545 48.0438C161.106 47.731 161.552 47.2701 161.882 46.6611C162.212 46.052 162.377 45.3113 162.377 44.4388C162.377 43.1384 162.031 42.1426 161.337 41.4512C160.66 40.7434 159.827 40.3895 158.836 40.3895C157.846 40.3895 157.012 40.7434 156.335 41.4512C155.675 42.1426 155.345 43.1384 155.345 44.4388C155.345 45.7393 155.667 46.7434 156.31 47.4512C156.971 48.1426 157.796 48.4882 158.787 48.4882Z" fill="white"/>
<path d="M171.953 39.7228C172.398 38.9985 172.976 38.4306 173.686 38.0191C174.412 37.6076 175.238 37.4018 176.162 37.4018V41.0314H175.246C174.157 41.0314 173.331 41.2866 172.77 41.7969C172.225 42.3072 171.953 43.1961 171.953 44.4635V51.2784H168.486V37.5993H171.953V39.7228Z" fill="white"/>
<path d="M191.25 44.1426C191.25 44.6364 191.217 45.0808 191.151 45.4759H181.122C181.205 46.4635 181.551 47.2372 182.162 47.7969C182.773 48.3565 183.524 48.6364 184.416 48.6364C185.703 48.6364 186.619 48.0849 187.164 46.9821H190.903C190.507 48.2989 189.748 49.3854 188.625 50.2413C187.503 51.0808 186.124 51.5006 184.49 51.5006C183.169 51.5006 181.981 51.2125 180.924 50.6364C179.884 50.0438 179.067 49.2125 178.473 48.1426C177.895 47.0726 177.606 45.838 177.606 44.4388C177.606 43.0232 177.895 41.7804 178.473 40.7105C179.05 39.6405 179.859 38.8175 180.899 38.2413C181.939 37.6652 183.136 37.3771 184.49 37.3771C185.794 37.3771 186.958 37.657 187.981 38.2166C189.021 38.7763 189.822 39.5747 190.383 40.6117C190.961 41.6323 191.25 42.8092 191.25 44.1426ZM187.659 43.1549C187.643 42.266 187.321 41.5582 186.694 41.0314C186.066 40.4882 185.299 40.2166 184.391 40.2166C183.532 40.2166 182.806 40.48 182.212 41.0068C181.634 41.517 181.279 42.2331 181.147 43.1549H187.659Z" fill="white"/>
<path d="M73.11 14.9277C74.2053 14.9277 75.1625 15.1286 75.9815 15.5305C76.8104 15.923 77.4468 16.4931 77.8909 17.2408C78.3448 17.9791 78.5718 18.8436 78.5718 19.8343C78.5718 20.8249 78.3448 21.6847 77.8909 22.4137C77.4468 23.1427 76.8104 23.7034 75.9815 24.0959C75.1625 24.4791 74.2053 24.6707 73.11 24.6707H69.75V14.9277H73.11ZM73.11 23.367C74.3138 23.367 75.2365 23.0586 75.8779 22.4417C76.5193 21.8249 76.84 20.9558 76.84 19.8343C76.84 18.7034 76.5193 17.8202 75.8779 17.1847C75.2365 16.5492 74.3138 16.2315 73.11 16.2315H71.4374V23.367H73.11Z" fill="white"/>
<path d="M83.7817 24.7969C83.012 24.7969 82.3163 24.6333 81.6947 24.3062C81.073 23.9698 80.5845 23.5025 80.2293 22.9044C79.8741 22.2969 79.6964 21.5959 79.6964 20.8015C79.6964 20.0165 79.879 19.3202 80.2441 18.7128C80.6092 18.1053 81.1075 17.638 81.7391 17.3109C82.3706 16.9838 83.0761 16.8202 83.8557 16.8202C84.6353 16.8202 85.3408 16.9838 85.9723 17.3109C86.6039 17.638 87.1022 18.1053 87.4673 18.7128C87.8324 19.3202 88.015 20.0165 88.015 20.8015C88.015 21.5866 87.8275 22.2829 87.4525 22.8903C87.0775 23.4978 86.5644 23.9698 85.9131 24.3062C85.2717 24.6333 84.5612 24.7969 83.7817 24.7969ZM83.7817 23.409C84.2159 23.409 84.6204 23.3109 84.9954 23.1146C85.3803 22.9184 85.6911 22.624 85.9279 22.2315C86.1647 21.8389 86.2832 21.3623 86.2832 20.8015C86.2832 20.2408 86.1697 19.7688 85.9427 19.3857C85.7158 18.9931 85.4148 18.6987 85.0398 18.5025C84.6649 18.3062 84.2603 18.2081 83.8261 18.2081C83.3919 18.2081 82.9873 18.3062 82.6124 18.5025C82.2473 18.6987 81.9562 18.9931 81.7391 19.3857C81.522 19.7688 81.4134 20.2408 81.4134 20.8015C81.4134 21.6333 81.6355 22.2782 82.0795 22.7361C82.5334 23.1847 83.1008 23.409 83.7817 23.409Z" fill="white"/>
<path d="M100.636 16.9464L98.1051 24.6707H96.3289L94.686 18.9651L93.043 24.6707H91.2668L88.7209 16.9464H90.4379L92.1401 23.1567L93.8719 16.9464H95.6333L97.291 23.1286L98.9784 16.9464H100.636Z" fill="white"/>
<path d="M106.012 16.8202C106.653 16.8202 107.226 16.9464 107.729 17.1987C108.242 17.4511 108.642 17.8249 108.928 18.3202C109.214 18.8156 109.357 19.4137 109.357 20.1146V24.6707H107.685V20.3529C107.685 19.6614 107.502 19.1333 107.137 18.7688C106.772 18.395 106.274 18.2081 105.642 18.2081C105.011 18.2081 104.507 18.395 104.132 18.7688C103.767 19.1333 103.585 19.6614 103.585 20.3529V24.6707H101.897V16.9464H103.585V17.8296C103.861 17.5118 104.211 17.2642 104.636 17.0866C105.07 16.909 105.529 16.8202 106.012 16.8202Z" fill="white"/>
<path d="M113.197 14.2969V24.6707H111.51V14.2969H113.197Z" fill="white"/>
<path d="M118.95 24.7969C118.18 24.7969 117.485 24.6333 116.863 24.3062C116.241 23.9698 115.753 23.5025 115.398 22.9044C115.042 22.2969 114.865 21.5959 114.865 20.8015C114.865 20.0165 115.047 19.3202 115.412 18.7128C115.777 18.1053 116.276 17.638 116.907 17.3109C117.539 16.9838 118.244 16.8202 119.024 16.8202C119.804 16.8202 120.509 16.9838 121.141 17.3109C121.772 17.638 122.27 18.1053 122.636 18.7128C123.001 19.3202 123.183 20.0165 123.183 20.8015C123.183 21.5866 122.996 22.2829 122.621 22.8903C122.246 23.4978 121.733 23.9698 121.081 24.3062C120.44 24.6333 119.73 24.7969 118.95 24.7969ZM118.95 23.409C119.384 23.409 119.789 23.3109 120.164 23.1146C120.549 22.9184 120.859 22.624 121.096 22.2315C121.333 21.8389 121.451 21.3623 121.451 20.8015C121.451 20.2408 121.338 19.7688 121.111 19.3857C120.884 18.9931 120.583 18.6987 120.208 18.5025C119.833 18.3062 119.429 18.2081 118.994 18.2081C118.56 18.2081 118.156 18.3062 117.781 18.5025C117.416 18.6987 117.124 18.9931 116.907 19.3857C116.69 19.7688 116.582 20.2408 116.582 20.8015C116.582 21.6333 116.804 22.2782 117.248 22.7361C117.702 23.1847 118.269 23.409 118.95 23.409Z" fill="white"/>
<path d="M124.289 20.7735C124.289 19.9978 124.457 19.3109 124.792 18.7128C125.137 18.1146 125.601 17.652 126.183 17.3249C126.776 16.9885 127.427 16.8202 128.137 16.8202C128.779 16.8202 129.336 16.9417 129.81 17.1847C130.293 17.4184 130.678 17.7128 130.964 18.0679V16.9464H132.667V24.6707H130.964V23.5212C130.678 23.8857 130.288 24.1894 129.795 24.4324C129.302 24.6754 128.739 24.7969 128.108 24.7969C127.407 24.7969 126.766 24.6286 126.183 24.2922C125.601 23.9464 125.137 23.4698 124.792 22.8623C124.457 22.2455 124.289 21.5492 124.289 20.7735ZM130.964 20.8015C130.964 20.2688 130.846 19.8062 130.609 19.4137C130.382 19.0212 130.081 18.7221 129.706 18.5165C129.331 18.3109 128.927 18.2081 128.492 18.2081C128.058 18.2081 127.654 18.3109 127.279 18.5165C126.904 18.7128 126.598 19.0072 126.361 19.3997C126.134 19.7829 126.021 20.2408 126.021 20.7735C126.021 21.3062 126.134 21.7735 126.361 22.1754C126.598 22.5772 126.904 22.8857 127.279 23.1006C127.664 23.3062 128.068 23.409 128.492 23.409C128.927 23.409 129.331 23.3062 129.706 23.1006C130.081 22.895 130.382 22.5959 130.609 22.2034C130.846 21.8015 130.964 21.3343 130.964 20.8015Z" fill="white"/>
<path d="M134.32 20.7735C134.32 19.9978 134.488 19.3109 134.824 18.7128C135.169 18.1146 135.633 17.652 136.215 17.3249C136.807 16.9885 137.463 16.8202 138.184 16.8202C138.716 16.8202 139.239 16.9324 139.753 17.1567C140.276 17.3716 140.69 17.6614 140.996 18.0258V14.2969H142.698V24.6707H140.996V23.5072C140.72 23.881 140.335 24.1894 139.841 24.4324C139.358 24.6754 138.8 24.7969 138.169 24.7969C137.458 24.7969 136.807 24.6286 136.215 24.2922C135.633 23.9464 135.169 23.4698 134.824 22.8623C134.488 22.2455 134.32 21.5492 134.32 20.7735ZM140.996 20.8015C140.996 20.2688 140.878 19.8062 140.641 19.4137C140.414 19.0212 140.113 18.7221 139.738 18.5165C139.363 18.3109 138.958 18.2081 138.524 18.2081C138.09 18.2081 137.685 18.3109 137.31 18.5165C136.935 18.7128 136.629 19.0072 136.393 19.3997C136.166 19.7829 136.052 20.2408 136.052 20.7735C136.052 21.3062 136.166 21.7735 136.393 22.1754C136.629 22.5772 136.935 22.8857 137.31 23.1006C137.695 23.3062 138.1 23.409 138.524 23.409C138.958 23.409 139.363 23.3062 139.738 23.1006C140.113 22.895 140.414 22.5959 140.641 22.2034C140.878 21.8015 140.996 21.3343 140.996 20.8015Z" fill="white"/>
<path d="M152.297 24.7969C151.527 24.7969 150.832 24.6333 150.21 24.3062C149.588 23.9698 149.1 23.5025 148.745 22.9044C148.389 22.2969 148.212 21.5959 148.212 20.8015C148.212 20.0165 148.394 19.3202 148.759 18.7128C149.124 18.1053 149.623 17.638 150.254 17.3109C150.886 16.9838 151.591 16.8202 152.371 16.8202C153.151 16.8202 153.856 16.9838 154.488 17.3109C155.119 17.638 155.617 18.1053 155.983 18.7128C156.348 19.3202 156.53 20.0165 156.53 20.8015C156.53 21.5866 156.343 22.2829 155.968 22.8903C155.593 23.4978 155.08 23.9698 154.428 24.3062C153.787 24.6333 153.076 24.7969 152.297 24.7969ZM152.297 23.409C152.731 23.409 153.136 23.3109 153.511 23.1146C153.896 22.9184 154.206 22.624 154.443 22.2315C154.68 21.8389 154.798 21.3623 154.798 20.8015C154.798 20.2408 154.685 19.7688 154.458 19.3857C154.231 18.9931 153.93 18.6987 153.555 18.5025C153.18 18.3062 152.776 18.2081 152.341 18.2081C151.907 18.2081 151.503 18.3062 151.128 18.5025C150.763 18.6987 150.471 18.9931 150.254 19.3857C150.037 19.7688 149.929 20.2408 149.929 20.8015C149.929 21.6333 150.151 22.2782 150.595 22.7361C151.049 23.1847 151.616 23.409 152.297 23.409Z" fill="white"/>
<path d="M162.313 16.8202C162.955 16.8202 163.527 16.9464 164.03 17.1987C164.543 17.4511 164.943 17.8249 165.229 18.3202C165.515 18.8156 165.658 19.4137 165.658 20.1146V24.6707H163.986V20.3529C163.986 19.6614 163.803 19.1333 163.438 18.7688C163.073 18.395 162.575 18.2081 161.943 18.2081C161.312 18.2081 160.808 18.395 160.433 18.7688C160.068 19.1333 159.886 19.6614 159.886 20.3529V24.6707H158.198V16.9464H159.886V17.8296C160.162 17.5118 160.512 17.2642 160.937 17.0866C161.371 16.909 161.83 16.8202 162.313 16.8202Z" fill="white"/>
<path d="M173.624 18.2501V22.5258C173.624 22.8156 173.693 23.0258 173.831 23.1567C173.979 23.2782 174.226 23.3389 174.572 23.3389H175.608V24.6707H174.275C173.516 24.6707 172.933 24.5025 172.529 24.166C172.124 23.8296 171.922 23.2829 171.922 22.5258V18.2501H170.96V16.9464H171.922V15.0258H173.624V16.9464H175.608V18.2501H173.624Z" fill="white"/>
<path d="M181.381 16.8202C182.003 16.8202 182.556 16.9464 183.039 17.1987C183.532 17.4511 183.917 17.8249 184.194 18.3202C184.48 18.8156 184.623 19.4137 184.623 20.1146V24.6707H182.95V20.3529C182.95 19.6614 182.768 19.1333 182.403 18.7688C182.037 18.395 181.539 18.2081 180.908 18.2081C180.276 18.2081 179.773 18.395 179.398 18.7688C179.033 19.1333 178.85 19.6614 178.85 20.3529V24.6707H177.163V14.2969H178.85V17.8436C179.136 17.5165 179.497 17.2642 179.931 17.0866C180.375 16.909 180.858 16.8202 181.381 16.8202Z" fill="white"/>
<path d="M194.25 20.6193C194.25 20.909 194.23 21.1707 194.191 21.4044H187.959C188.009 22.0212 188.25 22.5165 188.685 22.8903C189.119 23.2642 189.652 23.4511 190.283 23.4511C191.191 23.4511 191.832 23.0913 192.207 22.3716H194.028C193.781 23.0819 193.332 23.666 192.681 24.124C192.04 24.5726 191.24 24.7969 190.283 24.7969C189.504 24.7969 188.803 24.6333 188.181 24.3062C187.57 23.9698 187.086 23.5025 186.731 22.9044C186.385 22.2969 186.213 21.5959 186.213 20.8015C186.213 20.0072 186.38 19.3109 186.716 18.7128C187.061 18.1053 187.54 17.638 188.152 17.3109C188.773 16.9838 189.484 16.8202 190.283 16.8202C191.053 16.8202 191.739 16.9791 192.341 17.2969C192.943 17.6146 193.411 18.0632 193.747 18.6427C194.082 19.2128 194.25 19.8716 194.25 20.6193ZM192.489 20.1146C192.479 19.5258 192.257 19.0539 191.823 18.6987C191.388 18.3436 190.851 18.166 190.209 18.166C189.627 18.166 189.129 18.3436 188.714 18.6987C188.3 19.0445 188.053 19.5165 187.974 20.1146H192.489Z" fill="white"/>
<path fill-rule="evenodd" clip-rule="evenodd" d="M47.3162 30.4913C47.2628 24.7433 51.8843 21.973 52.0928 21.8417C49.4977 17.9302 45.4489 17.3948 44.007 17.3322C40.5651 16.9769 37.2897 19.4184 35.5422 19.4184C33.7994 19.4184 31.101 17.3863 28.2486 17.4441C24.4928 17.4978 21.0332 19.6858 19.0995 23.1396C15.2027 30.096 18.1034 40.3984 21.9036 46.0418C23.7583 48.7975 25.9752 51.9062 28.8821 51.7939C31.6862 51.6809 32.742 49.9347 36.1239 49.9347C39.5085 49.9347 40.459 51.7939 43.4249 51.7366C46.434 51.6809 48.3473 48.9219 50.1906 46.1549C52.3215 42.9498 53.1989 39.8471 53.25 39.686C53.1852 39.6618 47.3771 37.3693 47.3162 30.4913Z" fill="white"/>
<path fill-rule="evenodd" clip-rule="evenodd" d="M41.8954 14.0618C43.447 12.1354 44.4882 9.4623 44.2029 6.79688C41.9695 6.88776 39.2616 8.3239 37.6618 10.2443C36.2237 11.9483 34.9652 14.6695 35.3065 17.2792C37.7979 17.4776 40.3429 15.9844 41.8954 14.0618Z" fill="white"/>
<rect x="0.5" y="1.29688" width="210.5" height="65" rx="7.5" stroke="white"/>
</svg>
