<svg width="60" height="61" viewBox="0 0 60 61" fill="none" xmlns="http://www.w3.org/2000/svg">
<g clip-path="url(#clip0_297_452)">
<path opacity="0.1" d="M48.5425 16.798C51.1175 19.533 52.5 22.6005 52.5 27.573C52.5 36.323 46.3575 44.1655 37.425 48.043L35.1925 44.598C43.53 40.088 45.16 34.2355 45.81 30.5455C44.4675 31.2405 42.71 31.483 40.9875 31.323C36.4775 30.9055 32.9225 27.203 32.9225 22.6005C32.9225 20.2798 33.8444 18.0542 35.4853 16.4133C37.1263 14.7723 39.3519 13.8505 41.6725 13.8505C44.355 13.8505 46.92 15.0755 48.5425 16.798ZM23.5425 16.798C26.1175 19.533 27.5 22.6005 27.5 27.573C27.5 36.323 21.3575 44.1655 12.425 48.043L10.1925 44.598C18.53 40.088 20.16 34.2355 20.81 30.5455C19.4675 31.2405 17.71 31.483 15.9875 31.323C11.4775 30.9055 7.9225 27.203 7.9225 22.6005C7.9225 20.2798 8.84437 18.0542 10.4853 16.4133C12.1263 14.7723 14.3519 13.8505 16.6725 13.8505C19.355 13.8505 21.92 15.0755 23.5425 16.798Z" fill="white"/>
</g>
<defs>
<clipPath id="clip0_297_452">
<rect width="60" height="60" fill="white" transform="matrix(-1 0 0 -1 60 60.0996)"/>
</clipPath>
</defs>
</svg>
