<svg width="47" height="48" viewBox="0 0 47 48" fill="none" xmlns="http://www.w3.org/2000/svg">
<path d="M27.0586 15.6895C25.7865 16.5963 24.2299 17.1298 22.5486 17.1298C18.2531 17.1298 14.7708 13.6475 14.7708 9.352C14.7708 5.05645 18.2531 1.57422 22.5486 1.57422C25.333 1.57422 27.7757 3.03737 29.1497 5.23676M10.3264 41.7679H16.127C16.8833 41.7679 17.635 41.8579 18.3682 42.0379L24.4973 43.5273C25.8272 43.8513 27.2126 43.8828 28.5563 43.6218L35.333 42.3034C37.1231 41.9546 38.7699 41.0974 40.0605 39.842L44.855 35.178C46.2242 33.8484 46.2242 31.6907 44.855 30.3588C43.6223 29.1596 41.6702 29.0246 40.2756 30.0416L34.6877 34.1183C33.8875 34.7033 32.9137 35.0183 31.9123 35.0183H26.5164L29.951 35.0181C31.8868 35.0181 33.455 33.4927 33.455 31.6096V30.9279C33.455 29.3642 32.361 28.0008 30.8021 27.6228L25.501 26.3336C24.6383 26.1244 23.7548 26.0187 22.8667 26.0187C20.7227 26.0187 16.8417 27.7938 16.8417 27.7938L10.3264 30.5184M41.4375 11.5742C41.4375 15.8698 37.9553 19.352 33.6597 19.352C29.3642 19.352 25.8819 15.8698 25.8819 11.5742C25.8819 7.27867 29.3642 3.79644 33.6597 3.79644C37.9553 3.79644 41.4375 7.27867 41.4375 11.5742ZM1.4375 29.5742L1.4375 42.4631C1.4375 43.7077 1.4375 44.3299 1.67971 44.8053C1.89276 45.2234 2.23272 45.5634 2.65085 45.7764C3.12621 46.0187 3.74849 46.0187 4.99305 46.0187H6.77083C8.01539 46.0187 8.63767 46.0187 9.11303 45.7765C9.53117 45.5634 9.87113 45.2234 10.0842 44.8053C10.3264 44.3299 10.3264 43.7077 10.3264 42.4631V29.5742C10.3264 28.3297 10.3264 27.7074 10.0842 27.232C9.87113 26.8139 9.53117 26.4739 9.11303 26.2609C8.63768 26.0187 8.01539 26.0187 6.77083 26.0187L4.99306 26.0187C3.74849 26.0187 3.12621 26.0187 2.65085 26.2609C2.23272 26.4739 1.89276 26.8139 1.67971 27.232C1.4375 27.7074 1.4375 28.3297 1.4375 29.5742Z" stroke="white" stroke-width="2" stroke-linecap="round" stroke-linejoin="round"/>
</svg>
