<svg width="212" height="67" viewBox="0 0 212 67" fill="none" xmlns="http://www.w3.org/2000/svg">
<rect x="1" y="1.29688" width="210.5" height="65" rx="7.5" stroke="white"/>
<path d="M82.2705 38.8627C82.2705 39.8128 82.0447 40.7036 81.5931 41.5349C81.1582 42.3662 80.464 43.0364 79.5106 43.5454C78.574 44.0544 77.3864 44.3089 75.948 44.3089H73.0125V51.1292H69.5V33.3657H75.948C77.3028 33.3657 78.4569 33.6033 79.4103 34.0783C80.3637 34.5534 81.0746 35.2066 81.5429 36.0379C82.0279 36.8692 82.2705 37.8108 82.2705 38.8627ZM75.7974 41.4331C76.7675 41.4331 77.4868 41.2125 77.9551 40.7714C78.4234 40.3133 78.6576 39.6771 78.6576 38.8627C78.6576 37.1322 77.7042 36.2669 75.7974 36.2669H73.0125V41.4331H75.7974Z" fill="white"/>
<path d="M88.2768 32.2969V51.1292H84.7643V32.2969H88.2768Z" fill="white"/>
<path d="M90.844 44.0289C90.844 42.6038 91.12 41.3398 91.6719 40.237C92.2406 39.1342 93.0017 38.2859 93.9551 37.6921C94.9252 37.0983 96.004 36.8014 97.1916 36.8014C98.2286 36.8014 99.1318 37.0134 99.9012 37.4376C100.687 37.8617 101.315 38.3962 101.783 39.0409V37.0304H105.321V51.1292H101.783V49.0678C101.331 49.7295 100.704 50.2809 99.9012 50.722C99.1151 51.1462 98.2035 51.3583 97.1665 51.3583C95.9957 51.3583 94.9252 51.0529 93.9551 50.4421C93.0017 49.8313 92.2406 48.9745 91.6719 47.8717C91.12 46.752 90.844 45.471 90.844 44.0289ZM101.783 44.0798C101.783 43.2145 101.616 42.4765 101.281 41.8657C100.947 41.238 100.495 40.7629 99.9263 40.4406C99.3576 40.1013 98.7471 39.9316 98.0948 39.9316C97.4425 39.9316 96.8403 40.0928 96.2884 40.4151C95.7364 40.7375 95.2848 41.2125 94.9335 41.8403C94.599 42.4511 94.4318 43.1806 94.4318 44.0289C94.4318 44.8772 94.599 45.6237 94.9335 46.2684C95.2848 46.8962 95.7364 47.3797 96.2884 47.719C96.8571 48.0584 97.4592 48.228 98.0948 48.228C98.7471 48.228 99.3576 48.0668 99.9263 47.7445C100.495 47.4052 100.947 46.9301 101.281 46.3193C101.616 45.6916 101.783 44.9451 101.783 44.0798Z" fill="white"/>
<path d="M122.048 37.0304L113.443 57.7969H109.705L112.715 50.7729L107.145 37.0304H111.084L114.672 46.8792L118.31 37.0304H122.048Z" fill="white"/>
<path d="M135.967 51.3074C134.746 51.3074 133.642 51.0953 132.655 50.6711C131.685 50.247 130.915 49.6362 130.347 48.8388C129.778 48.0414 129.485 47.0998 129.469 46.0139H133.232C133.282 46.7435 133.533 47.3203 133.985 47.7445C134.453 48.1686 135.089 48.3807 135.892 48.3807C136.711 48.3807 137.355 48.1856 137.823 47.7954C138.292 47.3882 138.526 46.8622 138.526 46.2175C138.526 45.6916 138.367 45.259 138.049 44.9196C137.731 44.5803 137.33 44.3173 136.845 44.1307C136.377 43.9271 135.724 43.7066 134.888 43.469C133.751 43.1297 132.822 42.7989 132.103 42.4765C131.401 42.1372 130.79 41.6367 130.271 40.975C129.77 40.2964 129.519 39.3972 129.519 38.2774C129.519 37.2255 129.778 36.3093 130.297 35.5289C130.815 34.7485 131.543 34.1547 132.479 33.7475C133.416 33.3233 134.487 33.1112 135.691 33.1112C137.497 33.1112 138.961 33.5608 140.081 34.46C141.219 35.3423 141.846 36.5808 141.963 38.1756H138.099C138.066 37.5648 137.807 37.0643 137.322 36.6741C136.853 36.2669 136.226 36.0633 135.44 36.0633C134.754 36.0633 134.202 36.2415 133.784 36.5978C133.383 36.9541 133.182 37.4715 133.182 38.1502C133.182 38.6252 133.332 39.0239 133.633 39.3463C133.951 39.6517 134.336 39.9062 134.788 40.1097C135.256 40.2964 135.908 40.5169 136.745 40.7714C137.882 41.1107 138.81 41.4501 139.529 41.7894C140.249 42.1287 140.868 42.6377 141.386 43.3163C141.905 43.995 142.164 44.8857 142.164 45.9885C142.164 46.9386 141.921 47.8208 141.436 48.6352C140.951 49.4496 140.24 50.1028 139.304 50.5948C138.367 51.0698 137.255 51.3074 135.967 51.3074Z" fill="white"/>
<path d="M149.299 39.9571V46.7774C149.299 47.2525 149.407 47.6003 149.625 47.8208C149.859 48.0244 150.244 48.1262 150.779 48.1262H152.41V51.1292H150.202C147.241 51.1292 145.761 49.6701 145.761 46.752V39.9571H144.105V37.0304H145.761V33.5439H149.299V37.0304H152.41V39.9571H149.299Z" fill="white"/>
<path d="M161.108 51.3583C159.77 51.3583 158.566 51.0613 157.495 50.4675C156.425 49.8568 155.58 49 154.961 47.8972C154.359 46.7944 154.058 45.5219 154.058 44.0798C154.058 42.6377 154.367 41.3652 154.986 40.2624C155.622 39.1596 156.483 38.3113 157.57 37.7175C158.658 37.1068 159.87 36.8014 161.208 36.8014C162.547 36.8014 163.759 37.1068 164.846 37.7175C165.934 38.3113 166.787 39.1596 167.405 40.2624C168.041 41.3652 168.359 42.6377 168.359 44.0798C168.359 45.5219 168.033 46.7944 167.38 47.8972C166.745 49 165.875 49.8568 164.771 50.4675C163.684 51.0613 162.463 51.3583 161.108 51.3583ZM161.108 48.2535C161.744 48.2535 162.337 48.1008 162.889 47.7954C163.458 47.473 163.91 46.998 164.244 46.3702C164.579 45.7425 164.746 44.979 164.746 44.0798C164.746 42.7395 164.395 41.713 163.692 41.0005C163.006 40.2709 162.162 39.9062 161.158 39.9062C160.155 39.9062 159.31 40.2709 158.624 41.0005C157.955 41.713 157.621 42.7395 157.621 44.0798C157.621 45.4201 157.947 46.4551 158.599 47.1846C159.268 47.8972 160.104 48.2535 161.108 48.2535Z" fill="white"/>
<path d="M174.448 39.219C174.9 38.4725 175.485 37.8872 176.204 37.463C176.94 37.0389 177.776 36.8268 178.713 36.8268V40.5678H177.785C176.681 40.5678 175.845 40.8308 175.276 41.3568C174.724 41.8827 174.448 42.7989 174.448 44.1053V51.1292H170.935V37.0304H174.448V39.219Z" fill="white"/>
<path d="M194 43.7744C194 44.2834 193.967 44.7415 193.9 45.1487H183.738C183.822 46.1666 184.173 46.964 184.792 47.5409C185.411 48.1177 186.172 48.4062 187.075 48.4062C188.38 48.4062 189.308 47.8378 189.86 46.7011H193.649C193.247 48.0584 192.478 49.1781 191.341 50.0604C190.203 50.9256 188.807 51.3583 187.151 51.3583C185.813 51.3583 184.608 51.0613 183.538 50.4675C182.484 49.8568 181.656 49 181.054 47.8972C180.468 46.7944 180.176 45.5219 180.176 44.0798C180.176 42.6207 180.468 41.3398 181.054 40.237C181.639 39.1342 182.459 38.2859 183.513 37.6921C184.566 37.0983 185.779 36.8014 187.151 36.8014C188.472 36.8014 189.651 37.0898 190.688 37.6666C191.742 38.2435 192.553 39.0663 193.122 40.1352C193.707 41.1871 194 42.4002 194 43.7744ZM190.362 42.7565C190.345 41.8403 190.019 41.1107 189.384 40.5678C188.748 40.008 187.97 39.728 187.05 39.728C186.18 39.728 185.445 39.9995 184.842 40.5424C184.257 41.0683 183.897 41.8064 183.764 42.7565H190.362Z" fill="white"/>
<path d="M72.8195 14.9277C73.9016 14.9277 74.8472 15.1286 75.6564 15.5305C76.4753 15.923 77.1041 16.4931 77.5428 17.2408C77.9912 17.9791 78.2155 18.8436 78.2155 19.8343C78.2155 20.8249 77.9912 21.6847 77.5428 22.4137C77.1041 23.1427 76.4753 23.7034 75.6564 24.0959C74.8472 24.4791 73.9016 24.6707 72.8195 24.6707H69.5V14.9277H72.8195ZM72.8195 23.367C74.0088 23.367 74.9204 23.0586 75.554 22.4417C76.1877 21.8249 76.5045 20.9558 76.5045 19.8343C76.5045 18.7034 76.1877 17.8202 75.554 17.1847C74.9204 16.5492 74.0088 16.2315 72.8195 16.2315H71.1671V23.367H72.8195Z" fill="white"/>
<path d="M83.3626 24.7969C82.6022 24.7969 81.9149 24.6333 81.3008 24.3062C80.6866 23.9698 80.204 23.5025 79.853 22.9044C79.5021 22.2969 79.3266 21.5959 79.3266 20.8015C79.3266 20.0165 79.507 19.3202 79.8677 18.7128C80.2284 18.1053 80.7207 17.638 81.3446 17.3109C81.9685 16.9838 82.6656 16.8202 83.4357 16.8202C84.2059 16.8202 84.903 16.9838 85.5269 17.3109C86.1508 17.638 86.6431 18.1053 87.0038 18.7128C87.3645 19.3202 87.5449 20.0165 87.5449 20.8015C87.5449 21.5866 87.3597 22.2829 86.9892 22.8903C86.6187 23.4978 86.1118 23.9698 85.4684 24.3062C84.8347 24.6333 84.1328 24.7969 83.3626 24.7969ZM83.3626 23.409C83.7916 23.409 84.1913 23.3109 84.5617 23.1146C84.9419 22.9184 85.249 22.624 85.483 22.2315C85.717 21.8389 85.834 21.3623 85.834 20.8015C85.834 20.2408 85.7219 19.7688 85.4976 19.3857C85.2734 18.9931 84.9761 18.6987 84.6056 18.5025C84.2352 18.3062 83.8355 18.2081 83.4065 18.2081C82.9776 18.2081 82.5778 18.3062 82.2074 18.5025C81.8467 18.6987 81.5591 18.9931 81.3446 19.3857C81.1301 19.7688 81.0229 20.2408 81.0229 20.8015C81.0229 21.6333 81.2423 22.2782 81.681 22.7361C82.1294 23.1847 82.69 23.409 83.3626 23.409Z" fill="white"/>
<path d="M100.014 16.9464L97.5135 24.6707H95.7587L94.1355 18.9651L92.5123 24.6707H90.7575L88.2423 16.9464H89.9386L91.6203 23.1567L93.3312 16.9464H95.0714L96.7092 23.1286L98.3763 16.9464H100.014Z" fill="white"/>
<path d="M105.325 16.8202C105.959 16.8202 106.524 16.9464 107.021 17.1987C107.528 17.4511 107.923 17.8249 108.206 18.3202C108.489 18.8156 108.63 19.4137 108.63 20.1146V24.6707H106.978V20.3529C106.978 19.6614 106.797 19.1333 106.437 18.7688C106.076 18.395 105.584 18.2081 104.96 18.2081C104.336 18.2081 103.838 18.395 103.468 18.7688C103.107 19.1333 102.927 19.6614 102.927 20.3529V24.6707H101.26V16.9464H102.927V17.8296C103.2 17.5118 103.546 17.2642 103.965 17.0866C104.394 16.909 104.847 16.8202 105.325 16.8202Z" fill="white"/>
<path d="M112.424 14.2969V24.6707H110.756V14.2969H112.424Z" fill="white"/>
<path d="M118.107 24.7969C117.347 24.7969 116.659 24.6333 116.045 24.3062C115.431 23.9698 114.949 23.5025 114.598 22.9044C114.247 22.2969 114.071 21.5959 114.071 20.8015C114.071 20.0165 114.252 19.3202 114.612 18.7128C114.973 18.1053 115.465 17.638 116.089 17.3109C116.713 16.9838 117.41 16.8202 118.18 16.8202C118.95 16.8202 119.647 16.9838 120.271 17.3109C120.895 17.638 121.388 18.1053 121.748 18.7128C122.109 19.3202 122.289 20.0165 122.289 20.8015C122.289 21.5866 122.104 22.2829 121.734 22.8903C121.363 23.4978 120.856 23.9698 120.213 24.3062C119.579 24.6333 118.877 24.7969 118.107 24.7969ZM118.107 23.409C118.536 23.409 118.936 23.3109 119.306 23.1146C119.686 22.9184 119.994 22.624 120.228 22.2315C120.462 21.8389 120.579 21.3623 120.579 20.8015C120.579 20.2408 120.466 19.7688 120.242 19.3857C120.018 18.9931 119.721 18.6987 119.35 18.5025C118.98 18.3062 118.58 18.2081 118.151 18.2081C117.722 18.2081 117.322 18.3062 116.952 18.5025C116.591 18.6987 116.304 18.9931 116.089 19.3857C115.875 19.7688 115.767 20.2408 115.767 20.8015C115.767 21.6333 115.987 22.2782 116.426 22.7361C116.874 23.1847 117.435 23.409 118.107 23.409Z" fill="white"/>
<path d="M123.382 20.7735C123.382 19.9978 123.547 19.3109 123.879 18.7128C124.22 18.1146 124.678 17.652 125.254 17.3249C125.838 16.9885 126.482 16.8202 127.184 16.8202C127.817 16.8202 128.368 16.9417 128.836 17.1847C129.314 17.4184 129.694 17.7128 129.977 18.0679V16.9464H131.658V24.6707H129.977V23.5212C129.694 23.8857 129.309 24.1894 128.822 24.4324C128.334 24.6754 127.778 24.7969 127.155 24.7969C126.462 24.7969 125.829 24.6286 125.254 24.2922C124.678 23.9464 124.22 23.4698 123.879 22.8623C123.547 22.2455 123.382 21.5492 123.382 20.7735ZM129.977 20.8015C129.977 20.2688 129.86 19.8062 129.626 19.4137C129.402 19.0212 129.104 18.7221 128.734 18.5165C128.363 18.3109 127.964 18.2081 127.535 18.2081C127.106 18.2081 126.706 18.3109 126.336 18.5165C125.965 18.7128 125.663 19.0072 125.429 19.3997C125.205 19.7829 125.093 20.2408 125.093 20.7735C125.093 21.3062 125.205 21.7735 125.429 22.1754C125.663 22.5772 125.965 22.8857 126.336 23.1006C126.716 23.3062 127.116 23.409 127.535 23.409C127.964 23.409 128.363 23.3062 128.734 23.1006C129.104 22.895 129.402 22.5959 129.626 22.2034C129.86 21.8015 129.977 21.3343 129.977 20.8015Z" fill="white"/>
<path d="M133.292 20.7735C133.292 19.9978 133.458 19.3109 133.79 18.7128C134.131 18.1146 134.589 17.652 135.164 17.3249C135.749 16.9885 136.397 16.8202 137.109 16.8202C137.636 16.8202 138.152 16.9324 138.659 17.1567C139.176 17.3716 139.585 17.6614 139.888 18.0258V14.2969H141.569V24.6707H139.888V23.5072C139.615 23.881 139.234 24.1894 138.747 24.4324C138.269 24.6754 137.718 24.7969 137.094 24.7969C136.393 24.7969 135.749 24.6286 135.164 24.2922C134.589 23.9464 134.131 23.4698 133.79 22.8623C133.458 22.2455 133.292 21.5492 133.292 20.7735ZM139.888 20.8015C139.888 20.2688 139.771 19.8062 139.537 19.4137C139.312 19.0212 139.015 18.7221 138.645 18.5165C138.274 18.3109 137.874 18.2081 137.445 18.2081C137.016 18.2081 136.617 18.3109 136.246 18.5165C135.876 18.7128 135.574 19.0072 135.34 19.3997C135.115 19.7829 135.003 20.2408 135.003 20.7735C135.003 21.3062 135.115 21.7735 135.34 22.1754C135.574 22.5772 135.876 22.8857 136.246 23.1006C136.627 23.3062 137.026 23.409 137.445 23.409C137.874 23.409 138.274 23.3062 138.645 23.1006C139.015 22.895 139.312 22.5959 139.537 22.2034C139.771 21.8015 139.888 21.3343 139.888 20.8015Z" fill="white"/>
<path d="M151.052 24.7969C150.292 24.7969 149.605 24.6333 148.991 24.3062C148.376 23.9698 147.894 23.5025 147.543 22.9044C147.192 22.2969 147.016 21.5959 147.016 20.8015C147.016 20.0165 147.197 19.3202 147.557 18.7128C147.918 18.1053 148.41 17.638 149.034 17.3109C149.658 16.9838 150.355 16.8202 151.126 16.8202C151.896 16.8202 152.593 16.9838 153.217 17.3109C153.841 17.638 154.333 18.1053 154.694 18.7128C155.054 19.3202 155.235 20.0165 155.235 20.8015C155.235 21.5866 155.049 22.2829 154.679 22.8903C154.308 23.4978 153.802 23.9698 153.158 24.3062C152.524 24.6333 151.823 24.7969 151.052 24.7969ZM151.052 23.409C151.481 23.409 151.881 23.3109 152.251 23.1146C152.632 22.9184 152.939 22.624 153.173 22.2315C153.407 21.8389 153.524 21.3623 153.524 20.8015C153.524 20.2408 153.412 19.7688 153.187 19.3857C152.963 18.9931 152.666 18.6987 152.295 18.5025C151.925 18.3062 151.525 18.2081 151.096 18.2081C150.667 18.2081 150.268 18.3062 149.897 18.5025C149.536 18.6987 149.249 18.9931 149.034 19.3857C148.82 19.7688 148.713 20.2408 148.713 20.8015C148.713 21.6333 148.932 22.2782 149.371 22.7361C149.819 23.1847 150.38 23.409 151.052 23.409Z" fill="white"/>
<path d="M160.948 16.8202C161.582 16.8202 162.147 16.9464 162.644 17.1987C163.151 17.4511 163.546 17.8249 163.829 18.3202C164.111 18.8156 164.253 19.4137 164.253 20.1146V24.6707H162.6V20.3529C162.6 19.6614 162.42 19.1333 162.059 18.7688C161.699 18.395 161.206 18.2081 160.582 18.2081C159.958 18.2081 159.461 18.395 159.091 18.7688C158.73 19.1333 158.55 19.6614 158.55 20.3529V24.6707H156.883V16.9464H158.55V17.8296C158.823 17.5118 159.169 17.2642 159.588 17.0866C160.017 16.909 160.47 16.8202 160.948 16.8202Z" fill="white"/>
<path d="M172.123 18.2501V22.5258C172.123 22.8156 172.191 23.0258 172.327 23.1567C172.474 23.2782 172.717 23.3389 173.059 23.3389H174.082V24.6707H172.766C172.015 24.6707 171.44 24.5025 171.041 24.166C170.641 23.8296 170.441 23.2829 170.441 22.5258V18.2501H169.49V16.9464H170.441V15.0258H172.123V16.9464H174.082V18.2501H172.123Z" fill="white"/>
<path d="M179.786 16.8202C180.4 16.8202 180.946 16.9464 181.424 17.1987C181.912 17.4511 182.292 17.8249 182.565 18.3202C182.847 18.8156 182.989 19.4137 182.989 20.1146V24.6707H181.336V20.3529C181.336 19.6614 181.156 19.1333 180.795 18.7688C180.435 18.395 179.942 18.2081 179.318 18.2081C178.694 18.2081 178.197 18.395 177.827 18.7688C177.466 19.1333 177.286 19.6614 177.286 20.3529V24.6707H175.619V14.2969H177.286V17.8436C177.568 17.5165 177.924 17.2642 178.353 17.0866C178.792 16.909 179.27 16.8202 179.786 16.8202Z" fill="white"/>
<path d="M192.5 20.6193C192.5 20.909 192.48 21.1707 192.441 21.4044H186.285C186.334 22.0212 186.573 22.5165 187.002 22.8903C187.431 23.2642 187.957 23.4511 188.581 23.4511C189.478 23.4511 190.112 23.0913 190.482 22.3716H192.281C192.037 23.0819 191.593 23.666 190.95 24.124C190.316 24.5726 189.527 24.7969 188.581 24.7969C187.811 24.7969 187.119 24.6333 186.504 24.3062C185.9 23.9698 185.422 23.5025 185.071 22.9044C184.73 22.2969 184.56 21.5959 184.56 20.8015C184.56 20.0072 184.725 19.3109 185.057 18.7128C185.398 18.1053 185.871 17.638 186.475 17.3109C187.089 16.9838 187.791 16.8202 188.581 16.8202C189.341 16.8202 190.019 16.9791 190.614 17.2969C191.208 17.6146 191.671 18.0632 192.003 18.6427C192.334 19.2128 192.5 19.8716 192.5 20.6193ZM190.76 20.1146C190.75 19.5258 190.531 19.0539 190.102 18.6987C189.673 18.3436 189.142 18.166 188.508 18.166C187.933 18.166 187.44 18.3436 187.031 18.6987C186.621 19.0445 186.378 19.5165 186.3 20.1146H190.76Z" fill="white"/>
<path d="M25.1962 12.0592L44.6152 24.8284L39.0908 31.1176L21.6807 11.4875C22.0155 11.4875 22.5177 11.2969 22.8525 11.2969C23.6896 11.2969 24.5266 11.4875 25.1962 12.0592ZM18.5 48.2702V16.2521C18.5 14.7274 19.1696 13.3933 20.174 12.4404L37.7516 32.4517L20.3415 52.2725C19.1696 51.3196 18.5 49.7949 18.5 48.2702ZM25.1962 52.6537C24.1918 53.2254 23.0199 53.416 22.0155 53.2254L39.0908 33.9764L44.4478 40.0751L25.1962 52.6537ZM49.4699 36.6446L45.9544 38.9316L40.0952 32.4517L45.9544 25.7813L49.3025 28.0683C50.6418 29.0212 51.4788 30.5459 51.4788 32.4517C51.6462 33.9764 50.8092 35.6917 49.4699 36.6446Z" fill="white"/>
</svg>
